<?xml version="1.0" encoding="UTF-8" standalone="no"?>
<!DOCTYPE svg PUBLIC "-//W3C//DTD SVG 1.1//EN" "http://www.w3.org/Graphics/SVG/1.1/DTD/svg11.dtd">
<svg version="1.1" xmlns="http://www.w3.org/2000/svg" xmlns:xlink="http://www.w3.org/1999/xlink" preserveAspectRatio="xMidYMid meet" viewBox="0 0 160 160" width="160" height="160"><defs><path d="M86 2.28C85.14 6.69 82.93 22.21 74.98 22.21C66.55 22.31 64.63 6.78 63.96 2.28C68.37 2.28 83.8 2.28 86 2.28Z" id="d1EbeuAG8B"></path><path d="M64.63 113.83C66.16 107.98 67.22 101.95 67.98 95.72C67.96 95.03 67.81 89.51 67.79 88.82C67.5 87.67 67.31 87.57 67.12 87.19C66.41 86.88 60.74 84.43 60.03 84.12C56.1 70.23 55.14 53.45 60.03 31.13C60.73 31.36 66.32 33.28 67.02 33.52C66.35 26.05 64.34 15.5 54.95 17.9C55.05 14.74 55.33 8.99 57.82 7.17C62.52 3.62 64.05 17.04 68.27 21.45C70.57 23.36 72.77 24.32 74.98 24.32C77.18 24.32 79.48 23.36 81.69 21.45C85.9 17.04 87.44 3.62 92.13 7.17C94.62 8.99 94.91 14.74 95.01 17.9C85.62 15.5 83.6 26.05 82.93 33.52C83.64 33.28 89.32 31.36 90.02 31.13C94.82 53.45 93.86 70.23 90.02 84.12C89.3 84.44 83.47 86.97 82.74 87.28C82.45 87.57 82.26 87.95 82.17 88.34C82.15 89.08 81.99 94.98 81.97 95.72C82.74 101.95 83.8 107.98 85.33 113.83C81.88 120.44 78.43 123.7 74.98 123.7C71.53 123.7 68.08 120.44 64.63 113.83Z" id="c2fRJlRuFi"></path><path d="M32.91 80.38C32.91 81.92 33 83.45 33 85.08C33 85.1 33 85.19 33 85.37C32.95 85.48 32.91 85.55 32.91 85.56C32.24 86.04 31.66 87.19 31.28 88.34C30.99 89.39 30.9 90.45 31.09 91.21C33.2 95.81 34.35 100.51 34.63 105.11C35.02 109.71 34.44 114.31 33.1 118.91C33.39 125.62 36.36 132.8 40.1 139.23C45.08 147.56 51.6 154.65 55.81 157.72C54.95 148.23 54.18 138.75 53.9 129.26C53.61 119.48 53.8 109.71 54.85 99.65C51.98 98.11 49.2 96.2 46.52 93.99C43.64 91.79 40.96 89.2 38.37 86.23C38.36 86.22 38.33 86.15 38.27 86.04L38.27 85.85L38.27 71.95L38.27 70.9C38.62 71.3 38.81 71.52 38.85 71.57C39.33 72.14 41.34 73.58 43.93 75.3C47.28 77.51 53.22 81.34 56.48 83.35C50.73 73.39 53.7 38.79 57.63 29.11C56.87 27.2 55.81 25.85 54.28 25.57C53.61 25.38 52.94 25.47 52.17 25.76C52.15 25.76 52.06 25.8 51.88 25.85C38.66 43.93 32.33 62.11 32.91 80.38Z" id="biu0f6fRU"></path><path d="M117.05 80.38C117.05 81.92 116.95 83.45 116.95 85.08C116.95 85.1 116.95 85.19 116.95 85.37C117.07 85.48 117.13 85.55 117.15 85.56C117.72 86.04 118.3 87.19 118.68 88.34C118.97 89.39 119.16 90.45 118.87 91.21C116.76 95.81 115.61 100.51 115.32 105.11C115.04 109.71 115.52 114.31 116.86 118.91C116.57 125.62 113.7 132.8 109.86 139.23C104.88 147.56 98.36 154.65 94.15 157.72C95.1 148.23 95.77 138.75 96.06 129.26C96.35 119.48 96.16 109.71 95.1 99.65C97.98 98.11 100.76 96.2 103.54 93.99C106.32 91.79 109 89.2 111.59 86.23C111.6 86.22 111.66 86.15 111.78 86.04L111.78 85.85L111.78 71.95L111.78 70.9C111.43 71.3 111.24 71.52 111.2 71.57C110.63 72.14 108.62 73.58 106.03 75.3C102.67 77.51 96.73 81.34 93.47 83.35C99.22 73.39 96.25 38.79 92.32 29.11C93.09 27.2 94.15 25.85 95.68 25.57C96.35 25.38 97.02 25.47 97.79 25.76C97.81 25.76 97.9 25.8 98.07 25.85C111.36 43.93 117.69 62.11 117.05 80.38Z" id="bIqD1DO0R"></path></defs><g><g><g><use xlink:href="#d1EbeuAG8B" opacity="1" fill="#ed1c24" fill-opacity="1"></use><g><use xlink:href="#d1EbeuAG8B" opacity="1" fill-opacity="0" stroke="#000000" stroke-width="1" stroke-opacity="0"></use></g></g><g><use xlink:href="#c2fRJlRuFi" opacity="1" fill="#dfdfdf" fill-opacity="1"></use><g><use xlink:href="#c2fRJlRuFi" opacity="1" fill-opacity="0" stroke="#000000" stroke-width="1" stroke-opacity="0"></use></g></g><g><use xlink:href="#biu0f6fRU" opacity="1" fill="#dfdfdf" fill-opacity="1"></use><g><use xlink:href="#biu0f6fRU" opacity="1" fill-opacity="0" stroke="#000000" stroke-width="1" stroke-opacity="0"></use></g></g><g><use xlink:href="#bIqD1DO0R" opacity="1" fill="#dfdfdf" fill-opacity="1"></use><g><use xlink:href="#bIqD1DO0R" opacity="1" fill-opacity="0" stroke="#000000" stroke-width="1" stroke-opacity="0"></use></g></g></g></g></svg>